<?xml version="1.0" encoding="utf-8"?>
<!-- Generator: Adobe Illustrator 25.0.0, SVG Export Plug-In . SVG Version: 6.00 Build 0)  -->
<svg version="1.1" xmlns="http://www.w3.org/2000/svg" xmlns:xlink="http://www.w3.org/1999/xlink" x="0px" y="0px"
	 viewBox="330 2130 4360 760" style="enable-background:new 0 0 5000 5000;" xml:space="preserve">
<style type="text/css">
	.st0{fill:#F85F87;}
	.st1{fill:#AD2D55;}
</style>
<g id="Layer_1">
</g>
<g id="Layer_2">
	<g>
		<g>
			<path class="st0" d="M757.29,2540.78c-43.21,42.61-99.02,62.41-157.83,62.41c-152.43,0-220.85-105.02-221.45-215.45
				c-0.6-110.43,71.42-220.25,221.45-220.25c56.41,0,111.02,21.01,153.63,63.61l-45.01,43.21c-30.01-29.41-69.62-43.21-108.62-43.21
				c-106.82,0-155.43,78.62-154.83,156.03c0.6,76.82,46.21,153.03,154.83,153.03c39.01,0,82.22-16.2,111.63-45.61L757.29,2540.78z"
				/>
			<path class="st0" d="M876.7,2174.7v168.04c25.81-36.01,60.61-48.01,96.02-48.01c83.42,0,121.83,55.81,121.83,140.43v159.64
				h-61.81v-159.03c0-55.81-28.81-83.42-74.42-83.42c-48.01,0-81.62,39.61-81.62,88.22v154.23h-61.81V2174.7H876.7z"/>
			<path class="st0" d="M1461.82,2447.16c0,87.62-60.61,153.63-153.63,153.63c-92.42,0-152.43-66.01-152.43-153.63
				c0-87.02,60.61-154.23,152.43-154.23C1399.41,2292.92,1461.82,2360.14,1461.82,2447.16z M1217.57,2447.16
				c0,52.81,34.21,96.02,90.62,96.02c57.01,0,91.22-43.21,91.22-96.02c0-52.21-37.21-97.22-91.22-97.22
				C1251.78,2349.94,1217.57,2394.95,1217.57,2447.16z"/>
			<path class="st0" d="M1596.84,2211.9c0,51.01-76.82,51.01-76.82,0C1520.03,2161.49,1596.84,2161.49,1596.84,2211.9z
				 M1527.23,2297.72v297.06h61.81v-297.06H1527.23z"/>
			<path class="st0" d="M1923.31,2556.38c-33.01,32.41-69.61,46.21-112.22,46.21c-85.22,0-156.04-53.41-156.04-155.43
				c0-102.02,70.22-155.43,156.04-155.43c40.81,0,75.02,12.6,106.82,43.81l-39.61,41.41c-18.61-18-43.21-26.41-66.62-26.41
				c-53.41,0-94.82,37.81-94.82,96.62c0,62.41,43.21,95.42,94.22,95.42c25.2,0,51.01-7.8,70.22-27.61L1923.31,2556.38z"/>
			<path class="st0" d="M2017.52,2469.96c5.4,45.01,42.61,74.42,96.62,74.42c30.01,0,67.82-11.4,85.82-31.81l40.21,39.01
				c-30.61,33.61-81.62,50.41-127.23,50.41c-97.22,0-159.64-61.81-159.64-156.64c0-90.02,63.02-154.23,155.43-154.23
				c95.42,0,160.24,58.21,148.83,178.84H2017.52z M2198.16,2417.75c-3.6-46.81-37.81-71.42-87.62-71.42
				c-45.01,0-82.22,24.61-91.82,71.42H2198.16z"/>
			<path class="st0" d="M2846.28,2273.12l-142.83,198.64h-14.4l-141.03-198.64v322.27h-67.22V2175.3c26.41,0,51.01,0,78.02,0
				l138.63,196.84l138.03-196.84h78.02v420.09h-67.21V2273.12z"/>
			<path class="st0" d="M3047.31,2469.96c5.4,45.01,42.61,74.42,96.62,74.42c30.01,0,67.82-11.4,85.82-31.81l40.21,39.01
				c-30.61,33.61-81.62,50.41-127.23,50.41c-97.22,0-159.64-61.81-159.64-156.64c0-90.02,63.02-154.23,155.43-154.23
				c95.42,0,160.24,58.21,148.83,178.84H3047.31z M3227.95,2417.75c-3.6-46.81-37.81-71.42-87.62-71.42
				c-45.01,0-82.22,24.61-91.82,71.42H3227.95z"/>
			<path class="st0" d="M3648.03,2175.3v419.49h-58.21l-3.6-46.81c-23.41,37.81-63.01,52.81-102.62,52.81
				c-85.82,0-151.23-56.41-151.23-154.23c0-100.82,64.22-154.23,150.03-154.23c36.01,0,84.62,18,103.82,52.81V2175.3H3648.03z
				 M3394.17,2446.56c0,59.41,41.41,96.62,93.62,96.62c51.61,0,94.22-38.41,94.22-96.62c0-57.01-42.61-96.02-94.22-96.02
				C3435.58,2350.54,3394.17,2385.94,3394.17,2446.56z"/>
			<path class="st0" d="M3801.65,2211.9c0,51.01-76.82,51.01-76.82,0C3724.83,2161.49,3801.65,2161.49,3801.65,2211.9z
				 M3732.03,2297.72v297.06h61.81v-297.06H3732.03z"/>
			<path class="st0" d="M4128.12,2556.38c-33.01,32.41-69.61,46.21-112.22,46.21c-85.22,0-156.04-53.41-156.04-155.43
				c0-102.02,70.22-155.43,156.04-155.43c40.81,0,75.02,12.6,106.82,43.81l-39.61,41.41c-18.6-18-43.21-26.41-66.62-26.41
				c-53.41,0-94.82,37.81-94.82,96.62c0,62.41,43.21,95.42,94.22,95.42c25.2,0,51.01-7.8,70.22-27.61L4128.12,2556.38z"/>
			<path class="st0" d="M4413.77,2298.92h60.01c0,98.42,0,197.44,0,295.86h-58.81l-3-48.01c-19.8,37.81-65.41,55.81-102.02,55.81
				c-86.42,0.6-151.83-55.21-151.83-156.03c0-99.02,67.82-154.23,153.03-154.23c42.01,0,82.22,19.8,100.82,53.41L4413.77,2298.92z
				 M4219.93,2446.56c0,61.21,43.21,98.42,96.02,98.42c127.83,0,127.83-196.24,0-196.24
				C4263.14,2348.73,4219.93,2385.94,4219.93,2446.56z"/>
			<path class="st0" d="M4622,2175.3v419.49h-61.81V2175.3H4622z"/>
		</g>
		<g>
			<g>
				<path class="st1" d="M1055.59,2830.69v-79.34h12.58v79.34H1055.59z"/>
				<path class="st1" d="M1176.87,2807.8v-56.45h12.7v79.34h-9.63l-45-55.99v55.99h-12.81v-79.34h9.75L1176.87,2807.8z"/>
				<path class="st1" d="M1298.27,2807.8v-56.45h12.7v79.34h-9.63l-45-55.99v55.99h-12.81v-79.34h9.75L1298.27,2807.8z"/>
				<path class="st1" d="M1441.2,2791.36c0,21.42-13.03,41.03-40.58,41.03c-27.54,0-40.58-20.06-40.58-40.92
					c0-24.14,16.89-41.6,40.8-41.6C1427.94,2749.99,1441.2,2769.94,1441.2,2791.36z M1400.62,2820.72c19.72,0,28-13.94,28-29.13
					c0-14.62-8.39-29.81-27.77-30.15c-18.36,0-28.22,12.81-28.22,30.15C1372.85,2805.64,1381.02,2820.72,1400.62,2820.72z"/>
				<path class="st1" d="M1524.97,2831.03h-13.26l-32.98-79.68h14.28l25.28,64.5l25.39-64.5h14.17L1524.97,2831.03z"/>
				<path class="st1" d="M1652.49,2814.03h-42.96l-7.48,16.66h-13.49l35.59-79.34h13.83l35.59,79.34h-13.49L1652.49,2814.03z
					 M1631.07,2764.72l-16.78,37.75h33.55L1631.07,2764.72z"/>
				<path class="st1" d="M1729.45,2762.79h-26.07v-11.45c22.78,0,42.05,0,64.84,0v11.45h-25.96v67.9h-12.81V2762.79z"/>
				<path class="st1" d="M1814.13,2830.69v-79.34h12.58v79.34H1814.13z"/>
				<path class="st1" d="M1918.18,2831.03h-13.26l-32.98-79.68h14.28l25.28,64.5l25.39-64.5h14.17L1918.18,2831.03z"/>
				<path class="st1" d="M2054.99,2830.69h-58.6c0-26.41,0-52.93,0-79.34h58.26v12.36h-45.57v21.42h43.75v11.79h-43.75v21.31h45.91
					V2830.69z"/>
				<path class="st0" d="M2236.58,2769.94l-26.98,37.52h-2.72l-26.64-37.52v60.87h-12.69v-79.35c4.99,0,9.63,0,14.73,0l26.18,37.18
					l26.07-37.18h14.73v79.35h-12.7V2769.94z"/>
				<path class="st0" d="M2358.2,2814.03h-42.96l-7.48,16.66h-13.49l35.59-79.34h13.83l35.59,79.34h-13.49L2358.2,2814.03z
					 M2336.78,2764.72l-16.78,37.75h33.55L2336.78,2764.72z"/>
				<path class="st0" d="M2492.75,2830.69h-14.85l-24.14-27.43h-16.78v27.43h-12.69v-79.46c12.35,0,24.6,0.11,36.95,0.11
					c18.36,0,28,12.58,28,25.96c0,11.34-5.89,22.44-21.54,24.71l23.69,26.41L2492.75,2830.69z M2436.98,2762.91v28.79h24.15
					c10.54,0,15.19-6.69,15.19-14.17c0-7.14-4.65-14.62-15.08-14.62H2436.98z"/>
				<path class="st0" d="M2600.77,2751.8l-36.39,37.86l39.56,40.24v0.79h-15.87l-35.36-36.16v36.16h-12.7v-79.34h12.7v34.23
					l32.3-34.23h15.76V2751.8z"/>
				<path class="st0" d="M2647.47,2830.69v-79.34h12.58v79.34H2647.47z"/>
				<path class="st0" d="M2768.75,2807.8v-56.45h12.7v79.34h-9.63l-45-55.99v55.99H2714v-79.34h9.75L2768.75,2807.8z"/>
				<path class="st0" d="M2893.66,2769.6c-5.67-5.55-14.06-8.5-21.42-8.5c-18.59,0-29.36,13.94-29.24,30.72
					c0,14.51,8.61,28.56,29.24,28.56c6.8,0,13.03-1.7,19.38-7.03v-16.1h-22.1v-11.33h33.89v32.53c-7.93,8.73-17.8,13.83-31.17,13.83
					c-29.13,0-41.71-19.38-41.71-40.47c0-22.9,14.62-42.39,41.71-42.39c10.54,0,21.2,3.97,29.36,12.02L2893.66,2769.6z"/>
				<path class="st0" d="M3063.23,2768.92c-3.74-5.44-11.33-8.73-19.61-8.84c-10.66,0-18.36,4.42-18.36,12.01
					c0,7.71,8.84,9.86,19.27,11.33c16.32,2.27,31.85,6.8,31.85,24.6c-0.11,17.8-16.32,24.48-32.87,24.48
					c-15.19,0-26.86-4.65-34.12-18.02l9.52-6.35c5.67,9.63,15.53,13.04,24.71,13.04c9.52,0,20.06-3.17,20.06-13.15
					c0-8.61-9.18-11.56-20.29-13.03c-15.76-2.15-30.72-6.12-30.72-23.12c-0.11-16.43,16.32-22.78,30.6-22.78
					c11.45,0,22.9,2.72,29.58,13.38L3063.23,2768.92z"/>
				<path class="st0" d="M3200.95,2791.36c0,21.42-13.03,41.03-40.58,41.03c-27.54,0-40.58-20.06-40.58-40.92
					c0-24.14,16.89-41.6,40.8-41.6C3187.69,2749.99,3200.95,2769.94,3200.95,2791.36z M3160.37,2820.72c19.72,0,28-13.94,28-29.13
					c0-14.62-8.39-29.81-27.77-30.15c-18.36,0-28.22,12.81-28.22,30.15C3132.6,2805.64,3140.76,2820.72,3160.37,2820.72z"/>
				<path class="st0" d="M3262.73,2751.35v67.56h41.82v11.79h-54.52v-79.34H3262.73z"/>
				<path class="st0" d="M3414.96,2751.46v46.36c0,23.35-15.42,35.02-34.57,34.35c-17.68-0.45-32.76-11.79-32.76-34.35v-46.36h12.58
					v46.36c0,14.4,8.39,22.22,20.18,22.67c12.7,0.68,21.99-7.6,21.99-22.67v-46.36H3414.96z"/>
				<path class="st0" d="M3485.91,2762.79h-26.07v-11.45c22.78,0,42.05,0,64.84,0v11.45h-25.96v67.9h-12.81V2762.79z"/>
				<path class="st0" d="M3570.58,2830.69v-79.34h12.58v79.34H3570.58z"/>
				<path class="st0" d="M3713.4,2791.36c0,21.42-13.03,41.03-40.58,41.03c-27.54,0-40.58-20.06-40.58-40.92
					c0-24.14,16.89-41.6,40.8-41.6C3700.14,2749.99,3713.4,2769.94,3713.4,2791.36z M3672.82,2820.72c19.72,0,28-13.94,28-29.13
					c0-14.62-8.39-29.81-27.77-30.15c-18.36,0-28.22,12.81-28.22,30.15C3645.05,2805.64,3653.21,2820.72,3672.82,2820.72z"/>
				<path class="st0" d="M3817.23,2807.8v-56.45h12.7v79.34h-9.63l-45-55.99v55.99h-12.81v-79.34h9.75L3817.23,2807.8z"/>
				<path class="st0" d="M3931.26,2768.92c-3.74-5.44-11.33-8.73-19.61-8.84c-10.66,0-18.36,4.42-18.36,12.01
					c0,7.71,8.84,9.86,19.27,11.33c16.32,2.27,31.85,6.8,31.85,24.6c-0.11,17.8-16.32,24.48-32.87,24.48
					c-15.19,0-26.86-4.65-34.12-18.02l9.52-6.35c5.67,9.63,15.53,13.04,24.71,13.04c9.52,0,20.06-3.17,20.06-13.15
					c0-8.61-9.18-11.56-20.29-13.03c-15.76-2.15-30.72-6.12-30.72-23.12c-0.11-16.43,16.32-22.78,30.6-22.78
					c11.45,0,22.9,2.72,29.58,13.38L3931.26,2768.92z"/>
			</g>
		</g>
		<circle class="st1" cx="604.07" cy="2384.58" r="55.44"/>
	</g>
</g>
</svg>
